<svg id="visual" viewBox="0 0 1600 1200" width="1600" height="1200" xmlns="http://www.w3.org/2000/svg" xmlns:xlink="http://www.w3.org/1999/xlink" version="1.1"><rect x="0" y="0" width="1600" height="1200" fill="#fff"></rect><path d="M825 0L787.7 33.3C750.3 66.7 675.7 133.3 717.8 200C760 266.7 919 333.3 982.8 400C1046.7 466.7 1015.3 533.3 963.3 600C911.3 666.7 838.7 733.3 850.5 800C862.3 866.7 958.7 933.3 993.3 1000C1028 1066.7 1001 1133.3 987.5 1166.7L974 1200L0 1200L0 1166.7C0 1133.3 0 1066.7 0 1000C0 933.3 0 866.7 0 800C0 733.3 0 666.7 0 600C0 533.3 0 466.7 0 400C0 333.3 0 266.7 0 200C0 133.3 0 66.7 0 33.3L0 0Z" fill="#f2f0ff" stroke-linecap="round" stroke-linejoin="miter"></path></svg>