<svg viewBox="0 0 94.3871998400567 95.481" height="95.481" width="94.3871998400567" data-background-color="#051726" preserveAspectRatio="xMidYMid meet" id="tight-bounds" xmlns="http://www.w3.org/2000/svg" xmlns:xlink="http://www.w3.org/1999/xlink"><g><svg viewBox="0 0 94.3871998400567 95.481" height="95.481" width="94.3871998400567"><g><svg viewBox="0 0 94.3871998400567 95.481" height="95.481" width="94.3871998400567"><g><svg viewBox="0 0 94.3871998400567 95.481" height="95.481" width="94.3871998400567"><g><svg viewBox="0 0 94.3871998400567 95.481" height="95.481" width="94.3871998400567"><g><svg viewBox="0 0 94.3871998400567 95.481" height="95.481" width="94.3871998400567"><g><svg xmlns="http://www.w3.org/2000/svg" xmlns:xlink="http://www.w3.org/1999/xlink" version="1.1" x="0" y="0" viewBox="11.619999885559082 12 77.37999725341797 78.2767105102539" enable-background="new 0 0 100 100" xml:space="preserve" height="95.481" width="94.3871998400567" class="icon-icon-0" data-fill-palette-color="accent" id="icon-0"><g fill="#81ffd9" data-fill-palette-color="accent"><path d="M57.353 38.271l4.946-5.831c-3.927-2.733-8.437-3.274-13.571-3.274-13.4 0-22.875 6.883-24.481 22.455-1.373 13.34 12.101 25.93 26.272 24.662 13.355-1.199 22.786-11.453 22.786-24.865 0-4.703-1.34-7.766-3.684-11.481l-5.528 5.665c1.048 2.166 0.83 4.789 0.811 6.605-0.1 9.223-6.679 16.457-15.918 16.457-9.223 0-17.317-7.619-17.317-16.844 0-9.224 8.42-15.037 17.643-15.037 2.971 0 5.423 0.023 7.834 1.378C57.221 38.197 57.283 38.234 57.353 38.271z" fill="#81ffd9" data-fill-palette-color="accent"/><path d="M46.875 48.752l4.706-4.703c-0.087-0.025-0.174-0.049-0.249-0.074h-0.015c-0.796-0.222-1.636-0.333-2.494-0.333-5.298 0-10.873 4.31-10.873 9.606S43.348 63.92 48.644 63.92c5.297 0 10.426-5.264 10.426-10.562 0-0.615-0.702-1.326-0.813-1.918l-4.767 4.764c-0.973 0.965-2.242 1.453-3.512 1.453-1.281 0-2.548-0.488-3.52-1.453-1.947-1.945-1.947-5.098 0-7.043L46.875 48.752z" fill="#81ffd9" data-fill-palette-color="accent"/><path d="M76.929 39.49c1.919 4.029 3.356 8.281 2.988 13.021C78.583 69.799 66.87 82.648 49.843 83.635c-17.449 1.008-31.79-13.809-31.79-30.867 0-17.058 13.557-29.561 30.929-30.926 5.131-0.402 10.023 1.269 14.299 3.521l4.013-5.898c-5.43-3.005-11.724-5.521-18.312-4.718C25.864 17.561 11.62 31.804 11.62 52.768c0 20.961 16.44 38.283 37.688 37.482 20.949-0.789 36.427-14.436 37.682-38.43 0.456-8.726-1.49-11.158-4.149-16.346L76.929 39.49z" fill="#81ffd9" data-fill-palette-color="accent"/><path d="M64.391 27.018l2.595 4.302L53.401 44.811l-5.256 5.26 0.011 0.014c-1.208 1.193-1.208 3.154 0 4.359 1.567 1.551 3.015 1.307 4.556-0.209l5.101-5.102 5.308-5.307 5.446-5.455 0.713-0.713 1.948-1.948 4.383 2.267L89 28.09l-11.893-4.391L74.623 12l-5.715 8.389-4.013 5.875L64.391 27.018z" fill="#81ffd9" data-fill-palette-color="accent"/></g></svg></g></svg></g></svg></g></svg></g></svg></g></svg></g><defs/></svg>